<?xml version="1.0" encoding="UTF-8" standalone="no"?>
<!-- Created with Inkscape (http://www.inkscape.org/) -->

<svg
   width="93.389359mm"
   height="107.27348mm"
   viewBox="0 0 93.389359 107.27348"
   version="1.1"
   id="svg1"
   xml:space="preserve"
   sodipodi:docname="sls-logo.svg"
   inkscape:version="1.3.2 (091e20e, 2023-11-25, custom)"
   xmlns:inkscape="http://www.inkscape.org/namespaces/inkscape"
   xmlns:sodipodi="http://sodipodi.sourceforge.net/DTD/sodipodi-0.dtd"
   xmlns="http://www.w3.org/2000/svg"
   xmlns:svg="http://www.w3.org/2000/svg"><sodipodi:namedview
     id="namedview1"
     pagecolor="#ffffff"
     bordercolor="#000000"
     borderopacity="0.25"
     inkscape:showpageshadow="2"
     inkscape:pageopacity="0.0"
     inkscape:pagecheckerboard="0"
     inkscape:deskcolor="#d1d1d1"
     inkscape:document-units="mm"
     inkscape:zoom="2.1975957"
     inkscape:cx="176.55659"
     inkscape:cy="202.72154"
     inkscape:window-width="1920"
     inkscape:window-height="1129"
     inkscape:window-x="-8"
     inkscape:window-y="-8"
     inkscape:window-maximized="1"
     inkscape:current-layer="layer1" /><defs
     id="defs1" /><g
     inkscape:label="Warstwa 1"
     inkscape:groupmode="layer"
     id="layer1"
     transform="translate(-12.023277,-150.38504)"><path
       style="fill:#ffffff;fill-opacity:1"
       d="m 57.052952,254.4265 c -2.320571,-3.99733 -2.06251,-3.81586 -9.495932,-6.67751 -8.774807,-3.37805 -15.43569,-6.95792 -19.921234,-10.70661 -3.501708,-2.92647 -6.64656,-7.69645 -7.773451,-11.79044 -0.355716,-1.29231 -0.47195,-2.67339 -0.467626,-5.55625 0.0056,-3.71723 0.04822,-4.00913 1.372292,-9.39271 3.23904,-13.16972 4.019943,-22.02714 2.468533,-27.9994 -0.51177,-1.9701 -1.625741,-4.40725 -2.252045,-4.92704 -0.159893,-0.1327 -2.193681,-0.50563 -4.519529,-0.82873 -2.325848,-0.3231 -4.321406,-0.66821 -4.434574,-0.7669 -0.113167,-0.0987 1.35934,-1.59895 3.272237,-3.3339 1.912898,-1.73494 6.094256,-5.92501 9.291908,-9.31125 l 5.813913,-6.1568 1.562165,1.3943 c 3.356855,2.99614 5.054883,3.80556 8.575953,4.08797 3.460082,0.27753 9.084469,-1.19165 11.440001,-2.9883 0.483447,-0.36874 2.283589,-2.56437 4.000317,-4.87917 l 3.121322,-4.20872 2.995913,4.10588 c 1.647753,2.25823 3.364977,4.41808 3.816055,4.79965 2.602809,2.20174 9.380854,3.74629 13.176189,3.00251 2.439455,-0.47806 4.239601,-1.43418 6.565752,-3.4873 l 2.065974,-1.82349 8.915666,9.41156 c 4.903619,5.17635 8.849519,9.4777 8.768669,9.55855 -0.0808,0.0808 -1.82549,0.37026 -3.87697,0.64314 -2.051494,0.27287 -3.956817,0.61753 -4.234061,0.7659 -0.277243,0.14838 -0.925557,1.13202 -1.440698,2.18587 -1.416847,2.89851 -1.830478,5.82097 -1.656768,11.70567 0.172665,5.84928 0.945791,10.61859 3.023749,18.65313 1.440044,5.568 1.471814,5.76983 1.499224,9.525 0.0317,4.34297 -0.28979,5.95825 -1.838387,9.23693 -1.271072,2.6911 -2.848721,4.82213 -5.31024,7.17287 -4.24024,4.04942 -10.017979,7.43676 -18.487957,10.83901 -6.082768,2.44334 -8.342524,3.3989 -9.141795,3.8657 -0.660107,0.38553 -1.391445,1.37816 -2.757457,3.74265 -1.022495,1.76988 -1.930447,3.28501 -2.01767,3.36694 -0.08722,0.0819 -1.040971,-1.37098 -2.119438,-3.22871 z m 2.776347,-3.25724 c 1.28899,-2.00059 1.810965,-2.30485 8.766368,-5.10994 7.522802,-3.03392 10.151953,-4.20767 12.960311,-5.78597 9.821233,-5.51953 14.419792,-11.9211 14.419792,-20.07352 0,-2.7947 -0.313381,-4.60866 -1.568284,-9.07777 -1.0846,-3.8626 -2.323735,-10.27443 -2.836825,-14.67899 -0.552445,-4.74238 -0.37163,-11.18801 0.395301,-14.09161 1.149809,-4.35317 2.890089,-6.68297 5.606249,-7.50535 0.882115,-0.26709 1.659245,-0.57526 1.726965,-0.68483 0.0964,-0.15594 -5.31791,-6.03473 -11.401134,-12.37925 l -0.605364,-0.63136 -1.28085,1.06641 c -1.419972,1.18224 -3.181299,2.11978 -5.381891,2.86472 -2.34346,0.79331 -6.796927,0.67808 -10.31875,-0.26698 -4.82591,-1.295 -6.366587,-2.37382 -9.569711,-6.7009 -0.996427,-1.34607 -1.9056,-2.4474 -2.020386,-2.4474 -0.114786,0 -1.096082,1.20675 -2.180657,2.68167 -2.131368,2.89845 -3.334254,4.02104 -5.441869,5.07859 -1.835216,0.92087 -6.33765,2.03021 -8.94455,2.20383 -3.836975,0.25553 -7.923697,-1.02671 -10.565463,-3.315 -1.04005,-0.90089 -1.356472,-1.05221 -1.664925,-0.79622 -0.900744,0.74755 -11.610062,12.21365 -11.678034,12.50327 -0.04399,0.18746 0.690145,0.56586 1.776836,0.91585 2.060431,0.66361 2.967,1.51621 4.124559,3.87905 1.492267,3.04606 1.815818,5.05979 1.82798,11.37709 0.01261,6.54853 -0.409509,9.98499 -2.112498,17.19791 -0.515368,2.18282 -1.24592,5.27844 -1.623449,6.87917 -0.802719,3.40353 -0.966749,7.82751 -0.37769,10.18646 1.364616,5.46475 4.935686,10.00983 11.011315,14.01466 3.628396,2.39171 7.060397,4.04559 14.797667,7.131 8.028031,3.20136 8.497975,3.46505 9.808583,5.50369 0.582083,0.90543 1.117865,1.64853 1.190625,1.65133 0.07276,0.003 0.594661,-0.71252 1.159779,-1.58961 z m -2.614987,-6.36432 c -0.727604,-0.41784 -2.870729,-1.37118 -4.7625,-2.11853 -13.000809,-5.136 -17.572766,-7.60818 -21.729596,-11.74977 -2.602212,-2.59268 -4.126233,-5.42343 -4.611262,-8.56506 -0.389363,-2.52199 -0.225031,-3.78956 1.341651,-10.34881 2.633263,-11.02472 3.29601,-16.06037 3.104936,-23.59176 -0.110564,-4.35798 -0.228963,-5.49124 -0.79952,-7.65261 -0.759889,-2.87859 -1.639007,-4.77924 -3.139689,-6.78799 l -1.036614,-1.38757 2.429964,-2.58118 c 1.336481,-1.41965 2.500689,-2.57449 2.587131,-2.56632 0.08644,0.008 0.931072,0.39111 1.876957,0.85097 2.876093,1.39827 4.722574,1.77194 8.73125,1.76694 2.829095,-0.004 4.094572,-0.13232 6.085417,-0.61929 4.715014,-1.15331 8.173443,-2.89174 10.263343,-5.15902 l 1.059574,-1.1495 1.691708,1.61835 c 2.707959,2.59054 6.290625,4.15172 11.688016,5.09316 4.589924,0.80059 10.049242,0.0697 13.357955,-1.78839 0.778693,-0.4373 1.448115,-0.75751 1.487604,-0.71158 0.03949,0.0459 1.153793,1.25388 2.476233,2.68434 l 2.404435,2.60084 -1.028078,1.30061 c -5.290126,6.69251 -5.598203,19.52896 -0.91352,38.06311 1.213669,4.80168 1.433563,6.04038 1.433563,8.07552 0,4.42615 -1.289925,7.4564 -4.630208,10.87714 -3.447396,3.53043 -8.918365,6.58163 -19.181247,10.69751 -2.982603,1.19616 -6.137759,2.54786 -7.011459,3.00377 -0.873699,0.45592 -1.648076,0.84602 -1.720836,0.86689 -0.07276,0.0209 -0.727604,-0.30393 -1.455208,-0.72177 z m 3.382233,-3.58387 c 0.759147,-0.38479 3.761517,-1.64164 6.671933,-2.793 14.308896,-5.66061 20.10634,-10.04769 21.566173,-16.31971 0.465349,-1.99932 0.191102,-5.49649 -0.644885,-8.22352 -0.97583,-3.1832 -2.412247,-9.81018 -3.099021,-14.29748 -0.790999,-5.1683 -0.867674,-14.52705 -0.148079,-18.07422 0.594481,-2.93044 1.577045,-5.69092 2.730297,-7.67069 0.49196,-0.84454 0.894474,-1.62486 0.894474,-1.73403 0,-0.10918 -0.414946,-0.60069 -0.922102,-1.09225 l -0.922103,-0.89373 -2.649371,0.83696 c -5.26548,1.66343 -9.214097,1.71721 -15.085591,0.20549 -4.08453,-1.05164 -6.195856,-2.03492 -9.623597,-4.48187 -0.207887,-0.1484 -0.944303,0.20827 -2.104385,1.01922 -2.290308,1.60104 -5.316448,2.8158 -9.306393,3.73579 -5.441424,1.25467 -10.978134,0.92142 -15.263618,-0.91869 l -1.240701,-0.53274 -0.942111,1.04281 c -0.518162,0.57354 -0.942112,1.1002 -0.942112,1.17036 0,0.0702 0.362742,0.71708 0.806092,1.43762 1.078318,1.75249 2.235184,4.98945 2.809024,7.85977 0.64317,3.2171 0.648435,12.13296 0.0099,16.69019 -0.585681,4.17974 -1.548111,8.9469 -2.87332,14.2323 -0.583784,2.32833 -1.12557,5.06677 -1.203967,6.08542 -0.28106,3.65188 0.968165,6.92386 3.782532,9.90724 3.234919,3.42919 7.481529,5.77005 18.718281,10.31812 3.613705,1.46264 6.768861,2.77519 7.011458,2.91676 0.572746,0.33424 0.395563,0.37255 1.971235,-0.42612 z M 43.612706,230.03123 c -1.442325,-0.24209 -2.813448,-1.61413 -3.090874,-3.09294 -0.255395,-1.36137 0.704836,-3.17722 2.041061,-3.85976 0.894118,-0.45671 0.970784,-0.59402 1.133199,-2.02958 0.147449,-1.30328 0.46267,-1.99513 2.052701,-4.5053 1.693332,-2.67324 1.848957,-3.03041 1.578781,-3.62338 -0.522499,-1.14676 -0.369341,-2.59719 0.35701,-3.38093 0.64262,-0.6934 0.662482,-0.84346 0.924474,-6.98395 0.364903,-8.5525 0.38289,-8.11034 -0.345781,-8.50031 -0.878136,-0.46996 -1.547395,-1.73365 -1.450423,-2.73867 0.07586,-0.78619 0.01476,-0.8638 -0.737817,-0.93715 l -0.820526,-0.08 -0.175983,-4.15336 c -0.09679,-2.28435 -0.249993,-5.01657 -0.340449,-6.07159 l -0.164464,-1.91823 h 3.074161 c 3.487433,0 3.092976,-0.30482 3.526274,2.72492 0.308903,2.15994 0.73333,2.01739 0.826332,-0.27753 l 0.07774,-1.91822 h 3.019526 3.019526 l 0.07774,1.91822 c 0.06055,1.49416 0.165477,1.91823 0.474612,1.91823 0.309135,0 0.414061,-0.42407 0.474612,-1.91823 l 0.07774,-1.91822 h 3.019526 3.019526 l 0.07774,1.91822 c 0.121328,2.99388 0.709369,2.38344 1.146925,-1.19062 l 0.153861,-1.25677 h 3.06432 3.064319 l -0.167276,2.57969 c -0.092,1.41882 -0.245561,4.15102 -0.341243,6.07155 l -0.173967,3.49186 -0.821059,0.08 c -0.752954,0.0734 -0.813981,0.15074 -0.735724,0.93274 0.10133,1.01258 -0.576014,2.27375 -1.48142,2.7583 -0.643141,0.3442 -0.644571,0.35453 -0.488449,3.52647 0.08612,1.74969 0.232373,5.05649 0.325007,7.34844 0.09263,2.29195 0.279758,4.16719 0.415832,4.16719 0.136075,0 0.480978,0.52802 0.766452,1.17338 0.489371,1.10631 0.494675,1.23429 0.09278,2.23873 l -0.426266,1.06535 1.864336,2.94618 c 1.353812,2.1394 1.910044,3.28333 2.031251,4.17741 0.250341,1.84662 0.323581,1.98993 1.249768,2.44543 1.155982,0.5685 1.870359,1.86396 1.847879,3.35096 -0.01949,1.28926 -0.518367,2.16858 -1.75389,3.09142 -0.715614,0.5345 -1.027706,0.54632 -15.461777,0.58564 -8.102282,0.0221 -15.256206,-0.048 -15.89761,-0.15563 z m 30.952167,-2.1131 c 1.039814,-1.03982 1.039814,-2.17589 0,-3.21571 l -0.773398,-0.7734 H 58.66952 43.547565 l -0.773398,0.7734 c -0.527842,0.52784 -0.773397,1.03834 -0.773397,1.60785 0,0.56952 0.245555,1.08001 0.773397,1.60786 l 0.773398,0.77339 H 58.66952 73.791475 Z m -2.292876,-5.00931 c 0.07698,-0.12455 0.06705,-0.84202 -0.02205,-1.59439 -0.129595,-1.09423 -0.566982,-2.01506 -2.186002,-4.60219 l -2.02399,-3.23426 -9.289958,-0.0695 -9.289958,-0.0695 -2.041402,3.24276 c -1.643912,2.61135 -2.08073,3.52645 -2.243376,4.69971 -0.111085,0.80132 -0.149387,1.54625 -0.08511,1.65539 0.163444,0.27754 27.010111,0.24987 27.181856,-0.028 z m -4.25852,-10.13191 c 1.073764,-0.56518 1.295097,-1.54916 0.536911,-2.38695 -0.408674,-0.45158 -1.069487,-0.48385 -9.906872,-0.48385 h -9.46899 l -0.411878,0.58803 c -0.565069,0.80675 -0.519213,1.18077 0.237554,1.93754 l 0.649432,0.64943 h 8.892962 c 6.189115,0 9.068675,-0.0925 9.470881,-0.3042 z m -0.728842,-10.87445 c -0.100841,-3.81992 -0.24305,-7.15367 -0.316019,-7.40833 -0.122662,-0.42809 -0.747861,-0.46302 -8.286102,-0.46302 h -8.153431 l -0.155953,1.65364 c -0.08577,0.90951 -0.234438,4.24326 -0.330364,7.40833 l -0.174411,5.75469 h 8.799814 8.799815 z m 1.115597,-9.07698 c 0.702909,-0.49234 0.775135,-1.58868 0.150156,-2.27927 -0.408555,-0.45145 -1.06724,-0.48385 -9.834896,-0.48385 -10.339808,0 -10.364722,0.004 -10.364722,1.6135 0,1.52387 0.248619,1.5615 10.31875,1.5615 7.846614,0 9.226034,-0.0584 9.730712,-0.41188 z m 2.276334,-4.81365 c 0.08102,-0.5457 0.225809,-2.68882 0.321754,-4.7625 l 0.174447,-3.77031 H 69.567564 67.96236 l -0.16252,1.25677 c -0.08939,0.69123 -0.226209,1.70326 -0.304051,2.24896 l -0.141532,0.99219 h -1.696535 -1.696535 v -1.98438 -1.98437 h -1.5875 -1.5875 v 1.9955 1.99551 l -2.050521,-0.0773 -2.050521,-0.0773 -0.078,-1.93108 -0.078,-1.93108 -1.509503,0.079 -1.509504,0.079 -0.07774,1.91823 -0.07774,1.91823 h -1.689162 -1.689162 l -0.167816,-1.52136 c -0.34875,-3.16163 -0.24916,-3.01194 -1.944549,-2.92291 l -1.497587,0.0786 0.06422,2.77813 c 0.03532,1.52797 0.134778,3.64133 0.221011,4.69635 l 0.156787,1.91823 h 11.86042 11.860419 z"
       id="path15" /></g></svg>
